<?xml version="1.0" encoding="UTF-8"?>
<svg width="90px" height="100px" viewBox="0 0 90 100" version="1.1" xmlns="http://www.w3.org/2000/svg" xmlns:xlink="http://www.w3.org/1999/xlink">
    <!-- Generator: Sketch 52.1 (67048) - http://www.bohemiancoding.com/sketch -->
    <title>Group 4</title>
    <desc>Created with Sketch.</desc>
    <g id="Page-1" stroke="none" stroke-width="1" fill="none" fill-rule="evenodd">
        <g id="Group-4" fill="#707070">
            <path d="M45,100 C20.38,100 0.34,79.56 0.34,54.43 C0.249286458,40.2365479 6.7787124,26.8116636 18,18.12 C19.3241466,17.0903032 21.0085275,16.6400663 22.6698415,16.8717461 C24.3311556,17.103426 25.8280902,17.9973157 26.82,19.35 C28.9210512,22.182509 28.3845533,26.172989 25.61,28.35 C17.5526292,34.5943917 12.8647181,44.2364044 12.93,54.43 C12.93,72.43 27.32,87.16 45,87.16 C62.68,87.16 77.07,72.48 77.07,54.43 C77.1281124,44.2312122 72.4286429,34.588241 64.36,28.35 C61.5854467,26.172989 61.0489488,22.182509 63.15,19.35 C64.1422462,17.9883823 65.6451503,17.0883665 67.3139116,16.856437 C68.9826728,16.6245075 70.6740492,17.0805724 72,18.12 C83.2212876,26.8116636 89.7507135,40.2365479 89.66,54.43 C89.66,79.56 69.62,100 45,100 Z" id="Path"></path>
            <path d="M45,58.9 C43.2507057,58.8196444 41.6050518,58.0473979 40.4253357,56.7532737 C39.2456195,55.4591495 38.6285581,53.7492441 38.71,52 L38.71,6.87 C38.5574553,3.23873993 41.3693994,0.167506921 45,4.26325641e-14 C48.6306006,0.167506921 51.4425447,3.23873993 51.29,6.87 L51.29,52 C51.3714419,53.7492441 50.7543805,55.4591495 49.5746643,56.7532737 C48.3949482,58.0473979 46.7492943,58.8196444 45,58.9 Z" id="Path"></path>
        </g>
    </g>
</svg>