<?xml version="1.0" encoding="UTF-8"?>
<svg width="49px" height="41px" viewBox="0 0 49 41" version="1.1" xmlns="http://www.w3.org/2000/svg" xmlns:xlink="http://www.w3.org/1999/xlink">
    <!-- Generator: Sketch 51.3 (57544) - http://www.bohemiancoding.com/sketch -->
    <title>6 Repeat</title>
    <desc>Created with Sketch.</desc>
    <defs></defs>
    <g id="Page-1" stroke="none" stroke-width="1" fill="none" fill-rule="evenodd">
        <g id="6-Repeat" fill="#FFFFFF">
            <path d="M2.665,22.33 C2.666,22.33 2.667,22.33 2.667,22.33 C3.771,22.33 4.666,21.44 4.667,20.33 L4.673,14.07 C4.675,11.31 6.918,9.07 9.673,9.07 L41.839,9.07 L40.182,10.73 C39.4,11.51 39.4,12.78 40.182,13.56 C40.572,13.95 41.084,14.14 41.596,14.14 C42.107,14.14 42.62,13.95 43.01,13.56 L48.022,8.55 C48.423,8.18 48.679,7.66 48.679,7.07 C48.679,6.49 48.423,5.97 48.022,5.6 L43.01,0.59 C42.229,-0.19 40.962,-0.19 40.182,0.59 C39.4,1.37 39.4,2.63 40.182,3.42 L41.839,5.07 L9.673,5.07 C4.715,5.07 0.677,9.11 0.673,14.06 L0.667,20.33 C0.666,21.43 1.561,22.33 2.665,22.33" id="Fill-188"></path>
            <path d="M46.681,18.05 C46.68,18.05 46.68,18.05 46.679,18.05 C45.576,18.05 44.68,18.95 44.679,20.05 L44.673,26.32 C44.671,29.07 42.428,31.31 39.673,31.31 L7.507,31.31 L9.165,29.66 C9.946,28.88 9.946,27.61 9.165,26.83 C8.384,26.05 7.117,26.05 6.336,26.83 L1.324,31.84 C0.923,32.21 0.667,32.73 0.667,33.31 C0.667,33.9 0.923,34.42 1.324,34.79 L6.336,39.8 C6.727,40.19 7.239,40.39 7.75,40.39 C8.262,40.39 8.774,40.19 9.165,39.8 C9.946,39.02 9.946,37.75 9.165,36.97 L7.507,35.31 L39.673,35.31 C44.631,35.31 48.669,31.28 48.673,26.32 L48.679,20.06 C48.68,18.95 47.786,18.06 46.681,18.05" id="Fill-189"></path>
        </g>
    </g>
</svg>