<?xml version="1.0" encoding="UTF-8"?>
<svg width="5px" height="10px" viewBox="0 0 5 10" version="1.1" xmlns="http://www.w3.org/2000/svg" xmlns:xlink="http://www.w3.org/1999/xlink">
    <!-- Generator: Sketch 53 (72520) - https://sketchapp.com -->
    <title>Path</title>
    <desc>Created with Sketch.</desc>
    <g id="Page-1" stroke="none" stroke-width="1" fill="none" fill-rule="evenodd">
        <g id="Artboard" fill="#FFFFFF">
            <path d="M2.5,0.677087802 C2.86647223,0.261877443 3.40265374,-1.09730728e-16 4,0 L5,0 L5,1 L4,1 C3.44771525,1 3,1.44771525 3,2 L3,8 C3,8.55228475 3.44771525,9 4,9 L5,9 L5,10 L4,10 C3.40265374,10 2.86647223,9.73812256 2.5,9.3229122 C2.13352777,9.73812256 1.59734626,10 1,10 L0,10 L0,9 L1,9 C1.55228475,9 2,8.55228475 2,8 L2,2 C2,1.44771525 1.55228475,1 1,1 L0,1 L0,0 L1,0 C1.59734626,-1.09730728e-16 2.13352777,0.261877443 2.5,0.677087802 L2.5,0.677087802 Z" id="Path"></path>
        </g>
    </g>
</svg>